<svg xmlns="http://www.w3.org/2000/svg" width="8" height="9" viewBox="0 0 8 9" fill="none">
<g clip-path="url(#clip0_74_383)">
<path d="M7.12663 1.977L3.09608 6.583C3.06899 6.6141 3.03678 6.63877 3.00132 6.6556C2.96586 6.67243 2.92784 6.6811 2.88944 6.6811C2.85104 6.6811 2.81302 6.67243 2.77756 6.6556C2.7421 6.63877 2.70989 6.6141 2.68279 6.583L1.12413 4.8C1.09703 4.76891 1.06482 4.74424 1.02936 4.72741C0.9939 4.71057 0.955879 4.70191 0.91748 4.70191C0.879081 4.70191 0.84106 4.71057 0.805599 4.72741C0.770137 4.74424 0.737933 4.76891 0.710834 4.8C0.683629 4.83097 0.662042 4.86778 0.647312 4.9083C0.632582 4.94883 0.625 4.99228 0.625 5.03617C0.625 5.08005 0.632582 5.12351 0.647312 5.16403C0.662042 5.20456 0.683629 5.24137 0.710834 5.27234L2.27008 7.054C2.43457 7.24164 2.65748 7.34702 2.88988 7.34702C3.12228 7.34702 3.34518 7.24164 3.50967 7.054L7.53992 2.449C7.56708 2.41804 7.58863 2.38126 7.60333 2.34076C7.61804 2.30026 7.62561 2.25685 7.62561 2.213C7.62561 2.16916 7.61804 2.12574 7.60333 2.08525C7.58863 2.04475 7.56708 2.00797 7.53992 1.977C7.51282 1.94591 7.48062 1.92124 7.44515 1.90441C7.40969 1.88757 7.37167 1.87891 7.33327 1.87891C7.29487 1.87891 7.25685 1.88757 7.22139 1.90441C7.18593 1.92124 7.15372 1.94591 7.12663 1.977Z" fill="white"/>
</g>
<defs>
<clipPath id="clip0_74_383">
<rect width="7" height="8" fill="white" transform="translate(0.617188 0.5)"/>
</clipPath>
</defs>
</svg>